<svg width="22" height="21" viewBox="0 0 22 21" fill="none" xmlns="http://www.w3.org/2000/svg">
<path d="M3.41384 4.45196L0 1.3527L1.48954 0L4.90232 3.10021H20.9472C21.1113 3.1002 21.2731 3.13503 21.4198 3.2019C21.5664 3.26877 21.6938 3.36585 21.7917 3.48537C21.8897 3.6049 21.9556 3.74357 21.984 3.89031C22.0125 4.03706 22.0028 4.18781 21.9557 4.33055L19.4293 11.9783C19.3643 12.1753 19.2311 12.3481 19.0494 12.4708C18.8677 12.5936 18.6473 12.6599 18.4208 12.6599H5.51919V14.5719H17.0987V16.4838H4.46651C4.18733 16.4838 3.91957 16.3831 3.72216 16.2038C3.52474 16.0245 3.41384 15.7814 3.41384 15.5278V4.45196ZM5.51919 5.01216V10.748H17.6376L19.5324 5.01216H5.51919ZM4.99285 20.3077C4.57407 20.3077 4.17244 20.1566 3.87632 19.8877C3.5802 19.6188 3.41384 19.254 3.41384 18.8737C3.41384 18.4934 3.5802 18.1287 3.87632 17.8598C4.17244 17.5909 4.57407 17.4398 4.99285 17.4398C5.41163 17.4398 5.81326 17.5909 6.10939 17.8598C6.40551 18.1287 6.57187 18.4934 6.57187 18.8737C6.57187 19.254 6.40551 19.6188 6.10939 19.8877C5.81326 20.1566 5.41163 20.3077 4.99285 20.3077ZM17.625 20.3077C17.2062 20.3077 16.8046 20.1566 16.5085 19.8877C16.2123 19.6188 16.046 19.254 16.046 18.8737C16.046 18.4934 16.2123 18.1287 16.5085 17.8598C16.8046 17.5909 17.2062 17.4398 17.625 17.4398C18.0438 17.4398 18.4454 17.5909 18.7415 17.8598C19.0376 18.1287 19.204 18.4934 19.204 18.8737C19.204 19.254 19.0376 19.6188 18.7415 19.8877C18.4454 20.1566 18.0438 20.3077 17.625 20.3077Z" fill="white"/>
</svg>
