<svg width="255" height="196" viewBox="0 0 255 196" fill="none" xmlns="http://www.w3.org/2000/svg">
<g clip-path="url(#clip0_166_1193)">
<path d="M18.173 180.563C23.598 190.662 35.1118 194.997 35.1118 194.997C35.1118 194.997 37.8299 182.959 32.4049 172.86C26.9799 162.762 15.4661 158.427 15.4661 158.427C15.4661 158.427 12.748 170.464 18.173 180.563Z" fill="#FFA542"/>
<path d="M21.9021 177.24C31.6964 183.155 35.4686 194.903 35.4686 194.903C35.4686 194.903 23.3609 197.062 13.5665 191.147C3.77212 185.233 0 173.484 0 173.484C0 173.484 12.1077 171.326 21.9021 177.24Z" fill="#FFCE7F"/>
<path d="M243.239 8.45068H182.129V9.32694H243.239V8.45068Z" fill="#F2F2F2"/>
<path d="M199.589 0.564209H198.716V8.66969H199.589V0.564209Z" fill="#F2F2F2"/>
<path d="M226.216 0.564209H225.343V8.66969H226.216V0.564209Z" fill="#F2F2F2"/>
<path d="M262.445 114.041H201.335V114.917H262.445V114.041Z" fill="#F2F2F2"/>
<path d="M218.795 106.155H217.922V114.26H218.795V106.155Z" fill="#F2F2F2"/>
<path d="M245.422 106.155H244.549V114.26H245.422V106.155Z" fill="#F2F2F2"/>
<path d="M158.04 175.939H54.6826V175.193H157.296V138.994H63.3716L58.8089 129.453L59.4793 129.13L63.8395 138.247H158.04V175.939Z" fill="#2F2E41"/>
<path d="M68.4384 194.225C72.7504 194.225 76.246 190.716 76.246 186.388C76.246 182.06 72.7504 178.551 68.4384 178.551C64.1264 178.551 60.6309 182.06 60.6309 186.388C60.6309 190.716 64.1264 194.225 68.4384 194.225Z" fill="#3F3D56"/>
<path d="M145.398 194.225C149.71 194.225 153.206 190.716 153.206 186.388C153.206 182.06 149.71 178.551 145.398 178.551C141.086 178.551 137.591 182.06 137.591 186.388C137.591 190.716 141.086 194.225 145.398 194.225Z" fill="#3F3D56"/>
<path d="M236.115 24.8008C238.784 24.8008 240.948 22.6288 240.948 19.9495C240.948 17.2702 238.784 15.0981 236.115 15.0981C233.445 15.0981 231.281 17.2702 231.281 19.9495C231.281 22.6288 233.445 24.8008 236.115 24.8008Z" fill="#FFA542"/>
<path d="M169.094 126.679H52.9195L27.7822 44.2063H194.981L194.829 44.6915L169.094 126.679ZM53.4696 125.933H168.548L193.967 44.9526H28.7872L53.4696 125.933Z" fill="#2F2E41"/>
<path d="M160.025 122.388H57.9853L35.9062 49.2441H182.763L182.629 49.6748L160.025 122.388Z" fill="#F2F2F2"/>
<path d="M197.065 36.8383L196.346 36.6468L201.252 18.0835H229.795V18.8301H201.825L197.065 36.8383Z" fill="#2F2E41"/>
<path d="M186.627 69.2095H35.9062V69.9558H186.627V69.2095Z" fill="#2F2E41"/>
<path d="M177.995 96.7068H44.2871V97.4531H177.995V96.7068Z" fill="#2F2E41"/>
<path d="M111.751 44.5796H111.008V126.306H111.751V44.5796Z" fill="#2F2E41"/>
<path d="M145.043 44.5561L139.705 126.281L140.447 126.329L145.785 44.6049L145.043 44.5561Z" fill="#2F2E41"/>
<path d="M77.7324 44.555L76.9902 44.6035L82.2969 126.33L83.0391 126.282L77.7324 44.555Z" fill="#2F2E41"/>
<path d="M242.485 194.432H0V196H242.485V194.432Z" fill="#2F2E41"/>
<path d="M87.4089 22.9089H26.2988V23.7852H87.4089V22.9089Z" fill="#F2F2F2"/>
<path d="M43.7587 15.0227H42.8857V23.1282H43.7587V15.0227Z" fill="#F2F2F2"/>
<path d="M70.3847 15.0227H69.5117V23.1282H70.3847V15.0227Z" fill="#F2F2F2"/>
</g>
<defs>
<clipPath id="clip0_166_1193">
<rect width="255" height="196" fill="white"/>
</clipPath>
</defs>
</svg>
