<svg width="31" height="31" viewBox="0 0 31 31" fill="none" xmlns="http://www.w3.org/2000/svg">
<path d="M15.05 10.535C13.8525 10.535 12.7041 11.0107 11.8574 11.8574C11.0107 12.7041 10.535 13.8525 10.535 15.05C10.535 16.2475 11.0107 17.3959 11.8574 18.2426C12.7041 19.0893 13.8525 19.565 15.05 19.565C16.2475 19.565 17.3959 19.0893 18.2426 18.2426C19.0893 17.3959 19.565 16.2475 19.565 15.05C19.565 13.8525 19.0893 12.7041 18.2426 11.8574C17.3959 11.0107 16.2475 10.535 15.05 10.535ZM15.05 7.525C17.0458 7.525 18.9598 8.31781 20.371 9.72902C21.7822 11.1402 22.575 13.0542 22.575 15.05C22.575 17.0458 21.7822 18.9598 20.371 20.371C18.9598 21.7822 17.0458 22.575 15.05 22.575C13.0542 22.575 11.1402 21.7822 9.72902 20.371C8.31781 18.9598 7.525 17.0458 7.525 15.05C7.525 13.0542 8.31781 11.1402 9.72902 9.72902C11.1402 8.31781 13.0542 7.525 15.05 7.525ZM24.8325 7.14875C24.8325 7.64769 24.6343 8.12619 24.2815 8.47899C23.9287 8.8318 23.4502 9.03 22.9513 9.03C22.4523 9.03 21.9738 8.8318 21.621 8.47899C21.2682 8.12619 21.07 7.64769 21.07 7.14875C21.07 6.64981 21.2682 6.17131 21.621 5.81851C21.9738 5.4657 22.4523 5.2675 22.9513 5.2675C23.4502 5.2675 23.9287 5.4657 24.2815 5.81851C24.6343 6.17131 24.8325 6.64981 24.8325 7.14875ZM15.05 3.01C11.3266 3.01 10.7186 3.02054 8.98635 3.09729C7.80644 3.15298 7.0148 3.311 6.28036 3.59695C5.62719 3.84979 5.15613 4.1523 4.65496 4.65496C4.18391 5.11008 3.82173 5.6657 3.59544 6.28036C3.30949 7.01781 3.15147 7.80794 3.09729 8.98635C3.01903 10.6479 3.01 11.2288 3.01 15.05C3.01 18.7734 3.02054 19.3814 3.09729 21.1136C3.15298 22.2921 3.311 23.0852 3.59544 23.8181C3.85129 24.4728 4.1523 24.9439 4.65196 25.4435C5.15914 25.9492 5.63021 26.2517 6.27736 26.5015C7.02082 26.789 7.81246 26.9485 8.98635 27.0027C10.6479 27.081 11.2288 27.09 15.05 27.09C18.7734 27.09 19.3814 27.0795 21.1136 27.0027C22.2906 26.947 23.0837 26.789 23.8181 26.5046C24.4698 26.2502 24.9439 25.9477 25.4435 25.448C25.9507 24.9409 26.2532 24.4698 26.5031 23.8226C26.789 23.0807 26.9485 22.2875 27.0027 21.1136C27.081 19.4521 27.09 18.8712 27.09 15.05C27.09 11.3266 27.0795 10.7186 27.0027 8.98635C26.947 7.80945 26.789 7.0148 26.5031 6.28036C26.2762 5.66633 25.9147 5.11092 25.445 4.65496C24.9901 4.18367 24.4344 3.82145 23.8196 3.59544C23.0822 3.30949 22.2906 3.15147 21.1136 3.09729C19.4521 3.01903 18.8712 3.01 15.05 3.01ZM15.05 0C19.1391 0 19.6493 0.0150499 21.2536 0.0902999C22.8564 0.16555 23.9476 0.416885 24.9077 0.790125C25.901 1.1724 26.7378 1.69011 27.5746 2.52539C28.3399 3.27773 28.9321 4.1878 29.3099 5.19225C29.6816 6.15093 29.9345 7.24356 30.0097 8.84639C30.0804 10.4507 30.1 10.9609 30.1 15.05C30.1 19.1391 30.085 19.6493 30.0097 21.2536C29.9345 22.8564 29.6816 23.9476 29.3099 24.9077C28.9331 25.9128 28.3408 26.823 27.5746 27.5746C26.8221 28.3396 25.9121 28.9317 24.9077 29.3099C23.9491 29.6816 22.8564 29.9345 21.2536 30.0097C19.6493 30.0804 19.1391 30.1 15.05 30.1C10.9609 30.1 10.4507 30.085 8.84639 30.0097C7.24356 29.9345 6.15244 29.6816 5.19225 29.3099C4.1874 28.9328 3.27718 28.3406 2.52539 27.5746C1.75996 26.8224 1.16778 25.9123 0.790125 24.9077C0.416885 23.9491 0.16555 22.8564 0.0902999 21.2536C0.0195649 19.6493 0 19.1391 0 15.05C0 10.9609 0.0150499 10.4507 0.0902999 8.84639C0.16555 7.24206 0.416885 6.15244 0.790125 5.19225C1.16673 4.18718 1.75905 3.27687 2.52539 2.52539C3.27739 1.75969 4.18755 1.16747 5.19225 0.790125C6.15244 0.416885 7.24206 0.16555 8.84639 0.0902999C10.4507 0.0195649 10.9609 0 15.05 0Z" fill="#101010"/>
</svg>
