<svg width="20" height="20" viewBox="0 0 20 20" fill="none" xmlns="http://www.w3.org/2000/svg">
<g clip-path="url(#clip0_286_102)">
<path d="M1.66602 9.99984C1.66602 14.6023 5.39685 18.3332 9.99935 18.3332C14.6018 18.3332 18.3327 14.6023 18.3327 9.99984C18.3327 5.39734 14.6018 1.6665 9.99935 1.6665C5.39685 1.6665 1.66602 5.39734 1.66602 9.99984Z" stroke="#838383" stroke-width="1.5" stroke-linecap="round" stroke-linejoin="round"/>
<path d="M10.832 1.70801C10.832 1.70801 13.332 4.99967 13.332 9.99967C13.332 14.9997 10.832 18.2913 10.832 18.2913" stroke="#838383" stroke-width="1.5" stroke-linecap="round" stroke-linejoin="round"/>
<path d="M9.16602 18.2913C9.16602 18.2913 6.66602 14.9997 6.66602 9.99967C6.66602 4.99967 9.16602 1.70801 9.16602 1.70801" stroke="#838383" stroke-width="1.5" stroke-linecap="round" stroke-linejoin="round"/>
<path d="M2.19141 12.9165H17.8081" stroke="#838383" stroke-width="1.5" stroke-linecap="round" stroke-linejoin="round"/>
<path d="M2.19141 7.08301H17.8081" stroke="#838383" stroke-width="1.5" stroke-linecap="round" stroke-linejoin="round"/>
</g>
<defs>
<clipPath id="clip0_286_102">
<rect width="20" height="20" fill="white"/>
</clipPath>
</defs>
</svg>
