<svg width="17" height="17" viewBox="0 0 17 17" fill="none" xmlns="http://www.w3.org/2000/svg">
<path d="M12.7164 3.4H16.9553V5.1H15.2597V16.15C15.2597 16.3754 15.1704 16.5916 15.0114 16.751C14.8524 16.9104 14.6368 17 14.412 17H2.54329C2.31845 17 2.10282 16.9104 1.94383 16.751C1.78484 16.5916 1.69553 16.3754 1.69553 16.15V5.1H0V3.4H4.23882V0.85C4.23882 0.624566 4.32813 0.408365 4.48712 0.248959C4.64611 0.0895533 4.86174 0 5.08658 0H11.8687C12.0935 0 12.3092 0.0895533 12.4681 0.248959C12.6271 0.408365 12.7164 0.624566 12.7164 0.85V3.4ZM13.5642 5.1H3.39105V15.3H13.5642V5.1ZM9.67637 10.2L11.1752 11.7028L9.97648 12.9047L8.47763 11.4019L6.97879 12.9047L5.78005 11.7028L7.27889 10.2L5.78005 8.6972L6.97879 7.4953L8.47763 8.9981L9.97648 7.4953L11.1752 8.6972L9.67637 10.2ZM5.93434 1.7V3.4H11.0209V1.7H5.93434Z" fill="#DF6464"/>
</svg>
